<?xml version="1.0" encoding="utf-8"?>
<!-- Generator: Adobe Illustrator 19.2.0, SVG Export Plug-In . SVG Version: 6.00 Build 0)  -->
<svg version="1.1" id="Capa_1" xmlns="http://www.w3.org/2000/svg" xmlns:xlink="http://www.w3.org/1999/xlink" x="0px" y="0px"
	 viewBox="0 0 224.3 240.9" style="enable-background:new 0 0 224.3 240.9;" xml:space="preserve">
<style type="text/css">
	.st0{fill:#FFFFFF;}
</style>
<path class="st0" d="M100.8,199.5c-0.8,0.3-1.5,0.5-2,0.6c-1.6,0.4-3,0.6-4.3,0.6c-4,0-7.4-1.2-10.3-3.6c-3-2.5-4.6-5.8-4.6-9.6
	c0-3.8,1.5-6.9,4.5-9.3c2.8-2.3,6.2-3.4,10.2-3.4c2.1,0,3.8,0.2,5,0.6c0.9,0.4,1.4,0.7,1.5,0.7l-1.9,4.4c-0.5-0.1-0.9-0.2-1.2-0.3
	c-0.9-0.2-1.7-0.3-2.4-0.3c-2.5,0-4.4,0.8-5.8,2.3c-1.3,1.4-2,3.3-2,5.5c0,2.2,0.7,4,2,5.5c1.4,1.5,3.4,2.3,5.9,2.3
	c0.7,0,1.4-0.1,2.2-0.2c0.8-0.1,1.4-0.3,2-0.5L100.8,199.5z M120.2,179.6h-7.8v6.2h7.6v4.7h-7.5v9.5h-7.6v-25h15.3V179.6z
	 M145.1,179.6h-7.4V200h-7.5v-20.3h-7.3v-4.7h22.2V179.6z M26.1,240.2h-8l-2-6H8.3l-2.4,6H0l10.3-25.1h6.3L26.1,240.2z M15,230.3
	l-2.5-7.8l-2.9,7.8H15z M50.8,239.8l-7.9,0.8l-4.1-10.3h-2.1v9.9h-7.5v-25h12.1c2.3,0,4.2,0.6,5.7,1.7c1.7,1.3,2.5,3.1,2.5,5.4
	c0,1.5-0.4,2.8-1.2,4.1c-0.9,1.4-2,2.3-3.5,2.9L50.8,239.8z M42.5,222.6c0-1.1-0.4-1.9-1.2-2.4c-0.6-0.4-1.4-0.6-2.5-0.6
	c-0.4,0-0.8,0-1.2,0.1c-0.4,0-0.7,0.1-0.8,0.2v6.5c0.1,0,0.2,0.1,0.5,0.1c0.3,0,0.6,0.1,1,0.1c1.5,0,2.6-0.4,3.3-1.2
	C42.2,224.7,42.5,223.7,42.5,222.6z M78.9,240.2h-8l-2-6h-7.8l-2.4,6h-5.9l10.3-25.1h6.3L78.9,240.2z M67.8,230.3l-2.5-7.8l-2.9,7.8
	H67.8z M103.1,229.9c0,3.8-1,6.6-3,8.4c-1.8,1.6-4.5,2.5-8.1,2.5c-3.6,0-6.2-0.9-8-2.8c-1.6-1.7-2.4-4-2.4-6.9v-15.9H89v14.8
	c0,1.7,0.2,2.9,0.5,3.7c0.5,1.2,1.5,1.8,3,1.8c1.6,0,2.8-0.6,3.4-1.9c0.5-0.9,0.7-2.3,0.7-4.1v-14.3h6.4V229.9z M127.6,239.8
	c-0.8,0.3-1.5,0.5-2,0.6c-1.6,0.4-3,0.6-4.3,0.6c-4,0-7.4-1.2-10.3-3.6c-3-2.5-4.6-5.8-4.6-9.6c0-3.8,1.5-6.9,4.5-9.3
	c2.8-2.3,6.2-3.4,10.2-3.4c2.1,0,3.8,0.2,5,0.6c0.9,0.4,1.4,0.7,1.5,0.7l-1.9,4.4c-0.5-0.1-0.9-0.2-1.2-0.3
	c-0.9-0.2-1.7-0.3-2.4-0.3c-2.5,0-4.4,0.8-5.8,2.3c-1.3,1.4-2,3.3-2,5.5c0,2.2,0.7,4,2,5.5c1.4,1.5,3.4,2.3,5.9,2.3
	c0.7,0,1.4-0.1,2.2-0.2c0.8-0.1,1.4-0.3,2-0.5L127.6,239.8z M156.6,240.2h-8l-2-6h-7.8l-2.4,6h-5.9l10.3-25.1h6.3L156.6,240.2z
	 M145.5,230.3l-2.5-7.8l-2.9,7.8H145.5z M181.4,240.2h-4.7L165.1,226v14.2h-5.8v-25.1h5.2l10.9,13.9v-13.9h6V240.2z M195.8,207.7
	l-8.9,5.4h-2.6l8-7.9L195.8,207.7z M194.1,240.2h-7.5v-25h7.5V240.2z M224.3,240.2h-8l-2-6h-7.8l-2.4,6h-5.9l10.3-25.1h6.3
	L224.3,240.2z M213.2,230.3l-2.5-7.8l-2.9,7.8H213.2z"/>
<path class="st0" d="M104.9,19.2l-0.1,12.1l-11.5,6.6l0-12.1L104.9,19.2z M103.7,17l-10.4-6.1l-11.5,6.6l10.4,6.1L103.7,17z
	 M76.7,35.4l-11.5,6.6L75.6,48l11.5-6.6L76.7,35.4z M75.4,33.2l0-12.1L64,27.7l0,12.1L75.4,33.2z M90.3,26.1l-0.1,13.5l-11.7-6.8
	l0-13.5L90.3,26.1z M88.6,36.8l0-9.7l-8.4-4.9l0,9.7L88.6,36.8z M83.1,30.2l2.5,1.5l0-2.9l-2.5-1.5L83.1,30.2z M112.2,0L99.6,7.2
	l11.6,6.8v13.5l0.9-0.5l44.5,25.6V106l-44.5,25.6L67.7,106V52.6l0.9-0.5l-11.6-6.8V31.7l-12.4,7.1v81l67.5,38.8l67.5-38.8v-81
	L112.2,0z"/>
</svg>
